<?xml version="1.0" standalone="no"?>
<!DOCTYPE svg PUBLIC "-//W3C//DTD SVG 1.1//EN"
  "http://www.w3.org/Graphics/SVG/1.1/DTD/svg11.dtd">
<svg width="46.988001346588135mm" height="48.29000091552733mm" viewBox="-51.0880012512207 -17.690000534057614 46.988001346588135 48.29000091552733" xmlns="http://www.w3.org/2000/svg" version="1.1">
	<title>svgOutput</title>
	<desc>made with tinkercad</desc>
<path d="M -21.108999252319336 18.877000808715817 L -21.108999252319336 19.091999053955075 L -21.108999252319336 19.377000808715817 L -21.608999252319336 19.377000808715817 L -21.608999252319336 19.091999053955075 L -21.608999252319336 18.877000808715817 L -21.108999252319336 18.877000808715817 M -21.608999252319336 16.815999984741207 L -21.608999252319336 16.798000335693356 L -21.608999252319336 16.298000335693356 L -21.108999252319336 16.298000335693356 L -21.108999252319336 16.798000335693356 L -21.108999252319336 16.815999984741207 L -21.608999252319336 16.815999984741207 M -21.608999252319336 14.237999916076657 L -21.608999252319336 14.107999801635739 L -21.608999252319336 13.737000465393063 L -21.108999252319336 13.737000465393063 L -21.108999252319336 14.107999801635739 L -21.108999252319336 14.237999916076657 L -21.608999252319336 14.237999916076657 M -21.108999252319336 6.02500009536743 L -21.108999252319336 6.52500009536743 L -21.608999252319336 6.52500009536743 L -21.608999252319336 6.02500009536743 L -21.108999252319336 6.02500009536743 M -21.108999252319336 3.4639999866485587 L -21.108999252319336 3.9649999141693106 L -21.608999252319336 3.9649999141693106 L -21.608999252319336 3.4639999866485587 L -21.108999252319336 3.4639999866485587 M -21.108999252319336 0.9039999842643737 L -21.108999252319336 1.4040000438690186 L -21.608999252319336 1.4040000438690186 L -21.608999252319336 0.9039999842643737 L -21.108999252319336 0.9039999842643737 M -21.108999252319336 -1.6569999456405635 L -21.108999252319336 -1.1569999456405635 L -21.608999252319336 -1.1569999456405635 L -21.608999252319336 -1.6569999456405635 L -21.108999252319336 -1.6569999456405635 M -21.108999252319336 -9.338999748229979 L -21.108999252319336 -8.838999748229979 L -21.608999252319336 -8.838999748229979 L -21.608999252319336 -9.338999748229979 L -21.108999252319336 -9.338999748229979 M -21.503726959228516 -15.89999961853027 L -21.503999710083008 -15.897264480590817 L -21.505725860595703 -15.880000114440914 L -21.50794792175293 -15.871999740600582 L -21.510726928710938 -15.862000465393063 L -21.520715713500977 -15.84401988983154 L -21.520727157592773 -15.843999862670895 L -21.52185821533203 -15.842591285705563 L -21.532732009887695 -15.829000473022457 L -21.536956787109375 -15.825619697570797 L -21.547744750976562 -15.817000389099118 L -21.559959411621094 -15.81053256988525 L -21.565025329589844 -15.807999610900875 L -21.570093154907227 -15.806312561035153 L -21.583749771118164 -15.802000045776364 L -21.589374542236328 -15.801437377929684 L -21.603761672973633 -15.80000019073486 L -21.622760772705078 -15.802000045776364 L -21.628103256225586 -15.803685188293453 L -21.631999969482422 -15.804915428161618 L -21.641765594482422 -15.807999610900875 L -21.646541595458984 -15.810527801513668 L -21.65877914428711 -15.817000389099118 L -21.658803939819336 -15.817019462585446 L -21.669570922851562 -15.825634002685543 L -21.67405891418457 -15.829000473022457 L -21.67630386352539 -15.831805229187008 L -21.68277931213379 -15.838999748229977 L -21.686779022216797 -15.843999862670895 L -21.687984466552734 -15.846405982971188 L -21.689308166503906 -15.849047660827633 L -21.695783615112305 -15.862000465393063 L -21.69911766052246 -15.871999740600582 L -21.701784133911133 -15.880000114440914 L -21.70378303527832 -15.89999961853027 L -21.701784133911133 -15.920000076293942 L -21.70078468322754 -15.920999526977536 L -21.695783615112305 -15.937999725341793 L -21.693254470825195 -15.943049430847164 L -21.686779022216797 -15.956000328063961 L -21.686744689941406 -15.956042289733883 L -21.683412551879883 -15.960207939147946 L -21.67405891418457 -15.970999717712399 L -21.663267135620117 -15.979633331298825 L -21.65877914428711 -15.982999801635739 L -21.654010772705078 -15.985525131225582 L -21.641765594482422 -15.991999626159664 L -21.631999969482422 -15.995083808898922 L -21.628103256225586 -15.996315002441403 L -21.622760772705078 -15.998000144958493 L -21.603763580322266 -15.999999999999996 L -21.603761672973633 -15.999999999999996 L -21.598142623901367 -15.999438285827633 L -21.583749771118164 -15.998000144958493 L -21.570093154907227 -15.993687629699703 L -21.565025329589844 -15.991999626159664 L -21.55280876159668 -15.985532760620114 L -21.547744750976562 -15.982999801635739 L -21.54719352722168 -15.982559204101559 L -21.542743682861328 -15.97900009155273 L -21.53554916381836 -15.973253250122067 L -21.532766342163086 -15.971028327941891 L -21.532732009887695 -15.970999717712399 L -21.524112701416016 -15.960226058959957 L -21.520727157592773 -15.956000328063961 L -21.510726928710938 -15.937999725341793 L -21.505725860595703 -15.918999671936032 L -21.503999710083008 -15.902598381042477 L -21.503726959228516 -15.89999961853027 M -21.108999252319336 -11.899999618530272 L -21.108999252319336 -11.399999618530272 L -21.608999252319336 -11.399999618530272 L -21.608999252319336 -11.899999618530272 L -21.108999252319336 -11.899999618530272 M -21.108999252319336 -6.778999805450438 L -21.108999252319336 -6.278999805450438 L -21.608999252319336 -6.278999805450438 L -21.608999252319336 -6.778999805450438 L -21.108999252319336 -6.778999805450438 M -21.108999252319336 -4.217999935150146 L -21.108999252319336 -3.7179999351501456 L -21.608999252319336 -3.7179999351501456 L -21.608999252319336 -4.217999935150146 L -21.108999252319336 -4.217999935150146 M -21.108999252319336 8.616000175476072 L -21.108999252319336 9.100000381469725 L -21.108999252319336 9.116000175476072 L -21.608999252319336 9.116000175476072 L -21.608999252319336 9.100000381469725 L -21.608999252319336 8.616000175476072 L -21.108999252319336 8.616000175476072 M -21.108999252319336 11.177000045776365 L -21.108999252319336 11.677000045776365 L -21.608999252319336 11.677000045776365 L -21.608999252319336 11.177000045776365 L -21.108999252319336 11.177000045776365 M -21.108999252319336 21.4370002746582 L -21.108999252319336 21.937999725341793 L -21.608999252319336 21.937999725341793 L -21.608999252319336 21.4370002746582 L -21.108999252319336 21.4370002746582 M -28.32561492919922 -15.89999961853027 L -28.32761573791504 -15.880000114440914 L -28.32761573791504 -15.878999710083004 L -28.33008575439453 -15.871999740600582 L -28.333614349365234 -15.862000465393063 L -28.342615127563477 -15.843999862670895 L -28.351999282836914 -15.832268714904782 L -28.354583740234375 -15.829038619995114 L -28.3546142578125 -15.829000473022457 L -28.369474411010742 -15.817126274108883 L -28.369632720947266 -15.817000389099118 L -28.369821548461914 -15.816905975341793 L -28.387632369995117 -15.807999610900875 L -28.387683868408203 -15.80798244476318 L -28.40544319152832 -15.802062988281246 L -28.405643463134766 -15.802000045776364 L -28.405841827392578 -15.801979064941403 L -28.416000366210938 -15.800964355468746 L -28.425649642944336 -15.80000019073486 L -28.42584991455078 -15.800020217895504 L -28.444660186767578 -15.802000045776364 L -28.463470458984375 -15.807939529418942 L -28.46364974975586 -15.807999610900875 L -28.479999542236328 -15.81664657592773 L -28.480504989624023 -15.816914558410641 L -28.480676651000977 -15.817000389099118 L -28.480695724487305 -15.817014694213864 L -28.480724334716797 -15.817037582397457 L -28.48666763305664 -15.821000099182125 L -28.496618270874023 -15.828961372375485 L -28.496667861938477 -15.829000473022457 L -28.50855255126953 -15.84385776519775 L -28.5086669921875 -15.843999862670895 L -28.517667770385742 -15.862000465393063 L -28.52082633972168 -15.871999740600582 L -28.52366828918457 -15.880999565124508 L -28.525667190551758 -15.89999961853027 L -28.52366828918457 -15.920000076293942 L -28.518333435058594 -15.93599987030029 L -28.517667770385742 -15.937999725341793 L -28.5086669921875 -15.956000328063961 L -28.49674415588379 -15.970905303955075 L -28.496667861938477 -15.970999717712399 L -28.496524810791016 -15.971114158630368 L -28.480676651000977 -15.982999801635739 L -28.463830947875977 -15.991909980773922 L -28.46364974975586 -15.991999626159664 L -28.463470458984375 -15.992059707641598 L -28.444665908813477 -15.99799823760986 L -28.444660186767578 -15.998000144958493 L -28.444459915161133 -15.998020172119137 L -28.425649642944336 -15.999999999999996 L -28.416000366210938 -15.99903583526611 L -28.405841827392578 -15.998021125793453 L -28.405643463134766 -15.998000144958493 L -28.40544319152832 -15.99793720245361 L -28.387632369995117 -15.991999626159664 L -28.38744354248047 -15.99190521240234 L -28.369632720947266 -15.982999801635739 L -28.354780197143555 -15.97113227844238 L -28.3546142578125 -15.970999717712399 L -28.342615127563477 -15.956000328063961 L -28.333614349365234 -15.937999725341793 L -28.332948684692383 -15.93599987030029 L -28.32761573791504 -15.920000076293942 L -28.32561492919922 -15.89999961853027 M -49.5880012512207 18.877000808715817 L -49.5880012512207 19.091999053955075 L -49.5880012512207 19.377000808715817 L -50.0880012512207 19.377000808715817 L -50.0880012512207 19.091999053955075 L -50.0880012512207 18.877000808715817 L -49.5880012512207 18.877000808715817 M -49.5880012512207 16.298000335693356 L -49.5880012512207 16.315999984741207 L -49.5880012512207 16.815999984741207 L -50.0880012512207 16.815999984741207 L -50.0880012512207 16.315999984741207 L -50.0880012512207 16.298000335693356 L -49.5880012512207 16.298000335693356 M -50.0880012512207 14.237999916076657 L -50.0880012512207 14.107999801635739 L -50.0880012512207 13.737000465393063 L -49.5880012512207 13.737000465393063 L -49.5880012512207 14.107999801635739 L -49.5880012512207 14.237999916076657 L -50.0880012512207 14.237999916076657 M -49.5880012512207 8.616000175476072 L -49.5880012512207 9.100000381469725 L -49.5880012512207 9.116000175476072 L -50.0880012512207 9.116000175476072 L -50.0880012512207 9.100000381469725 L -50.0880012512207 8.616000175476072 L -49.5880012512207 8.616000175476072 M -49.5880012512207 -4.217999935150146 L -49.5880012512207 -3.7179999351501456 L -50.0880012512207 -3.7179999351501456 L -50.0880012512207 -4.217999935150146 L -49.5880012512207 -4.217999935150146 M -49.5880012512207 -6.778999805450438 L -49.5880012512207 -6.278999805450438 L -50.0880012512207 -6.278999805450438 L -50.0880012512207 -6.778999805450438 L -49.5880012512207 -6.778999805450438 M -50.0880012512207 -8.838999748229979 L -50.0880012512207 -9.248999595642088 L -50.0880012512207 -9.338999748229979 L -49.5880012512207 -9.338999748229979 L -49.5880012512207 -9.248999595642088 L -49.5880012512207 -8.838999748229979 L -50.0880012512207 -8.838999748229979 M -49.5880012512207 -1.6569999456405635 L -49.5880012512207 -1.1569999456405635 L -50.0880012512207 -1.1569999456405635 L -50.0880012512207 -1.6569999456405635 L -49.5880012512207 -1.6569999456405635 M -49.5880012512207 0.9039999842643737 L -49.5880012512207 1.4040000438690186 L -50.0880012512207 1.4040000438690186 L -50.0880012512207 0.9039999842643737 L -49.5880012512207 0.9039999842643737 M -49.5880012512207 3.4639999866485587 L -49.5880012512207 3.9649999141693106 L -50.0880012512207 3.9649999141693106 L -50.0880012512207 3.4639999866485587 L -49.5880012512207 3.4639999866485587 M -49.5880012512207 6.02500009536743 L -49.5880012512207 6.52500009536743 L -50.0880012512207 6.52500009536743 L -50.0880012512207 6.02500009536743 L -49.5880012512207 6.02500009536743 M -49.5880012512207 -11.899999618530272 L -49.5880012512207 -11.399999618530272 L -50.0880012512207 -11.399999618530272 L -50.0880012512207 -11.899999618530272 L -49.5880012512207 -11.899999618530272 M -49.5880012512207 11.177000045776365 L -49.5880012512207 11.677000045776365 L -50.0880012512207 11.677000045776365 L -50.0880012512207 11.177000045776365 L -49.5880012512207 11.177000045776365 M -49.5880012512207 21.4370002746582 L -49.5880012512207 21.937999725341793 L -50.0880012512207 21.937999725341793 L -50.0880012512207 21.4370002746582 L -49.5880012512207 21.4370002746582 M -21.608999252319336 24.497999191284173 L -21.608999252319336 24.10000038146972 L -21.608999252319336 23.997999191284176 L -21.108999252319336 23.997999191284176 L -21.108999252319336 24.10000038146972 L -21.108999252319336 24.497999191284173 L -21.608999252319336 24.497999191284173 M -50.0880012512207 24.497999191284173 L -50.0880012512207 24.10000038146972 L -50.0880012512207 23.997999191284176 L -49.5880012512207 23.997999191284176 L -49.5880012512207 24.10000038146972 L -49.5880012512207 24.497999191284173 L -50.0880012512207 24.497999191284173 M -20.06999969482422 -16.690000534057614 L -19.56999969482422 -16.690000534057614 L -19.56999969482422 -16.190000534057614 L -20.06999969482422 -16.190000534057614 L -20.06999969482422 -16.690000534057614 M -13.461999893188477 29.60000038146972 L -13.961999893188477 29.60000038146972 L -13.961999893188477 29.10000038146972 L -13.461999893188477 29.10000038146972 L -13.461999893188477 29.60000038146972 M -16.100000381469727 7.599999904632567 L -15.699999809265137 7.599999904632567 L -15.600000381469727 7.599999904632567 L -15.600000381469727 8.100000381469725 L -15.699999809265137 8.100000381469725 L -16.100000381469727 8.100000381469725 L -16.100000381469727 7.599999904632567 M -16.100000381469727 -4.900000095367431 L -15.699999809265137 -4.900000095367431 L -15.600000381469727 -4.900000095367431 L -15.600000381469727 -4.400000095367431 L -15.699999809265137 -4.400000095367431 L -16.100000381469727 -4.400000095367431 L -16.100000381469727 -4.900000095367431 M -15.699999809265137 15.600000381469723 L -15.199999809265137 15.600000381469723 L -15.199999809265137 16.100000381469723 L -15.699999809265137 16.100000381469723 L -15.699999809265137 15.600000381469723 M -17 -16.190000534057614 L -17.3700008392334 -16.190000534057614 L -17.5 -16.190000534057614 L -17.5 -16.690000534057614 L -17.3700008392334 -16.690000534057614 L -17 -16.690000534057614 L -17 -16.190000534057614 M -16.770000457763672 15.600000381469723 L -16.270000457763672 15.600000381469723 L -16.270000457763672 16.100000381469723 L -16.770000457763672 16.100000381469723 L -16.770000457763672 15.600000381469723 M -12.979999542236328 -13.425999641418453 L -12.979999542236328 -12.925999641418453 L -13.479999542236328 -12.925999641418453 L -13.479999542236328 -13.425999641418453 L -12.979999542236328 -13.425999641418453 M -14.600000381469727 15.600000381469723 L -14.100000381469727 15.600000381469723 L -14.100000381469727 16.100000381469723 L -14.600000381469727 16.100000381469723 L -14.600000381469727 15.600000381469723 M -11.100000381469727 9.600000381469725 L -10.850000381469727 9.600000381469725 L -10.600000381469727 9.600000381469725 L -10.600000381469727 10.100000381469725 L -10.850000381469727 10.100000381469725 L -11.100000381469727 10.100000381469725 L -11.100000381469727 9.600000381469725 M -8.461999893188477 29.60000038146972 L -8.961999893188477 29.60000038146972 L -8.961999893188477 29.10000038146972 L -8.461999893188477 29.10000038146972 L -8.461999893188477 29.60000038146972 M -5.599999904632568 8.100000381469725 L -5.599999904632568 7.599999904632567 L -5.099999904632568 7.599999904632567 L -5.099999904632568 8.100000381469725 L -5.599999904632568 8.100000381469725 M -7.980000019073486 -13.425999641418453 L -7.980000019073486 -12.925999641418453 L -8.479999542236328 -12.925999641418453 L -8.479999542236328 -13.425999641418453 L -7.980000019073486 -13.425999641418453 M -6.099999904632568 -4.400000095367431 L -6.099999904632568 -4.900000095367431 L -5.599999904632568 -4.900000095367431 L -5.599999904632568 -4.400000095367431 L -6.099999904632568 -4.400000095367431 z" fill="none" stroke="rgb(255,0,0)" stroke-width="0.001mm" />
</svg>